<svg width="39" height="31" viewBox="0 0 39 31" fill="none" xmlns="http://www.w3.org/2000/svg">
<path d="M10.8759 14.758C10.8759 12.178 10.8759 9.60799 10.8759 7.02799C10.8759 6.17799 11.3459 5.89799 12.1159 6.25799C12.5959 6.48799 13.0359 6.41799 13.4559 6.09799C14.2759 5.47799 14.6259 5.47799 15.4459 6.09799C15.9659 6.48799 16.5059 6.49799 17.0259 6.09799C17.8559 5.47799 18.1959 5.47799 19.0159 6.09799C19.5459 6.49799 20.0759 6.49799 20.5959 6.10799C21.4359 5.48799 21.7559 5.48799 22.6159 6.11799C23.0459 6.43799 23.5059 6.47799 23.9859 6.23799C24.6659 5.89799 25.1759 6.20799 25.1759 6.97799C25.1759 11.518 25.1759 16.058 25.1759 20.598C25.1759 21.218 24.9059 21.488 24.2759 21.488C20.8659 21.488 17.4659 21.488 14.0559 21.488C12.9559 21.488 12.4359 21.848 12.0359 22.878C11.9159 23.198 11.6459 23.368 11.3559 23.308C11.0559 23.248 10.8759 23.018 10.8759 22.628C10.8759 19.998 10.8759 17.378 10.8759 14.758ZM18.0559 10.088C16.8059 10.088 15.5659 10.088 14.3159 10.088C14.2059 10.088 14.0959 10.088 13.9859 10.088C13.5459 10.118 13.2659 10.398 13.2559 10.798C13.2559 11.218 13.5459 11.508 13.9959 11.538C14.0859 11.538 14.1659 11.538 14.2559 11.538C16.7559 11.538 19.2559 11.538 21.7659 11.538C21.8959 11.538 22.0359 11.538 22.1659 11.518C22.5259 11.458 22.7659 11.168 22.7659 10.798C22.7659 10.438 22.5159 10.148 22.1459 10.098C22.0159 10.078 21.8759 10.078 21.7459 10.078C20.5159 10.078 19.2759 10.078 18.0459 10.078L18.0559 10.088ZM18.0159 14.848C19.2659 14.848 20.5059 14.848 21.7559 14.848C21.8759 14.848 21.9959 14.848 22.1259 14.838C22.5159 14.788 22.7759 14.508 22.7859 14.128C22.7859 13.738 22.5259 13.438 22.1159 13.398C22.0059 13.388 21.8959 13.398 21.7859 13.398C19.2859 13.398 16.7859 13.398 14.2759 13.398C14.1459 13.398 14.0059 13.398 13.8759 13.418C13.5159 13.478 13.2659 13.768 13.2759 14.138C13.2759 14.498 13.5259 14.788 13.8959 14.848C14.0259 14.868 14.1659 14.868 14.2959 14.868C15.5459 14.868 16.7859 14.868 18.0359 14.868L18.0159 14.848ZM16.1959 18.148C16.8759 18.148 17.5659 18.148 18.2459 18.148C18.7859 18.148 19.1159 17.868 19.1159 17.418C19.1159 16.968 18.7959 16.688 18.2559 16.688C16.8759 16.688 15.4959 16.688 14.1159 16.688C13.5759 16.688 13.2559 16.978 13.2659 17.428C13.2659 17.868 13.5859 18.138 14.1059 18.138C14.8059 18.138 15.4959 18.138 16.1959 18.138V18.148Z" fill="#ADADAD"/>
<path d="M12.2559 24.398C12.8159 24.128 13.0559 23.778 13.0859 23.258C13.1059 22.828 13.4159 22.578 13.8859 22.578C14.8959 22.578 15.9159 22.578 16.9259 22.578C19.6959 22.578 22.4659 22.578 25.2459 22.578C25.9259 22.578 26.2559 22.808 26.2659 23.298C26.2859 23.858 25.8359 24.358 25.2659 24.408C25.2059 24.408 25.1459 24.408 25.0859 24.408C20.9059 24.408 16.7359 24.408 12.5559 24.408C12.4959 24.408 12.4359 24.408 12.2659 24.398H12.2559Z" fill="#ADADAD"/>
<rect x="0.322754" y="0.841553" width="37.7446" height="29.9482" rx="10" fill="#F7F7F7" stroke="#ADADAD" stroke-width="0.4"/>
<path d="M12.4998 15.5532C12.4998 12.9732 12.4998 10.4032 12.4998 7.82318C12.4998 6.97318 12.9698 6.69318 13.7398 7.05318C14.2198 7.28318 14.6598 7.21318 15.0798 6.89318C15.8998 6.27318 16.2498 6.27318 17.0698 6.89318C17.5898 7.28318 18.1298 7.29318 18.6498 6.89318C19.4798 6.27318 19.8198 6.27318 20.6398 6.89318C21.1698 7.29318 21.6998 7.29318 22.2198 6.90318C23.0598 6.28318 23.3798 6.28318 24.2398 6.91318C24.6698 7.23318 25.1298 7.27318 25.6098 7.03318C26.2898 6.69318 26.7998 7.00318 26.7998 7.77318C26.7998 12.3132 26.7998 16.8532 26.7998 21.3932C26.7998 22.0132 26.5298 22.2832 25.8998 22.2832C22.4898 22.2832 19.0898 22.2832 15.6798 22.2832C14.5798 22.2832 14.0598 22.6432 13.6598 23.6732C13.5398 23.9932 13.2698 24.1632 12.9798 24.1032C12.6798 24.0432 12.4998 23.8132 12.4998 23.4232C12.4998 20.7932 12.4998 18.1732 12.4998 15.5532ZM19.6798 10.8832C18.4298 10.8832 17.1898 10.8832 15.9398 10.8832C15.8298 10.8832 15.7198 10.8832 15.6098 10.8832C15.1698 10.9132 14.8898 11.1932 14.8798 11.5932C14.8798 12.0132 15.1698 12.3032 15.6198 12.3332C15.7098 12.3332 15.7898 12.3332 15.8798 12.3332C18.3798 12.3332 20.8798 12.3332 23.3898 12.3332C23.5198 12.3332 23.6598 12.3332 23.7898 12.3132C24.1498 12.2532 24.3898 11.9632 24.3898 11.5932C24.3898 11.2332 24.1398 10.9432 23.7698 10.8932C23.6398 10.8732 23.4998 10.8732 23.3698 10.8732C22.1398 10.8732 20.8998 10.8732 19.6698 10.8732L19.6798 10.8832ZM19.6398 15.6432C20.8898 15.6432 22.1298 15.6432 23.3798 15.6432C23.4998 15.6432 23.6198 15.6432 23.7498 15.6332C24.1398 15.5832 24.3998 15.3032 24.4098 14.9232C24.4098 14.5332 24.1498 14.2332 23.7398 14.1932C23.6298 14.1832 23.5198 14.1932 23.4098 14.1932C20.9098 14.1932 18.4098 14.1932 15.8998 14.1932C15.7698 14.1932 15.6298 14.1932 15.4998 14.2132C15.1398 14.2732 14.8898 14.5632 14.8998 14.9332C14.8998 15.2932 15.1498 15.5832 15.5198 15.6432C15.6498 15.6632 15.7898 15.6632 15.9198 15.6632C17.1698 15.6632 18.4098 15.6632 19.6598 15.6632L19.6398 15.6432ZM17.8198 18.9432C18.4998 18.9432 19.1898 18.9432 19.8698 18.9432C20.4098 18.9432 20.7398 18.6632 20.7398 18.2132C20.7398 17.7632 20.4198 17.4832 19.8798 17.4832C18.4998 17.4832 17.1198 17.4832 15.7398 17.4832C15.1998 17.4832 14.8798 17.7732 14.8898 18.2232C14.8898 18.6632 15.2098 18.9332 15.7298 18.9332C16.4298 18.9332 17.1198 18.9332 17.8198 18.9332V18.9432Z" fill="#ADADAD"/>
<path d="M13.8798 25.1932C14.4398 24.9232 14.6798 24.5732 14.7098 24.0532C14.7298 23.6232 15.0398 23.3732 15.5098 23.3732C16.5198 23.3732 17.5398 23.3732 18.5498 23.3732C21.3198 23.3732 24.0898 23.3732 26.8698 23.3732C27.5498 23.3732 27.8798 23.6032 27.8898 24.0932C27.9098 24.6532 27.4598 25.1532 26.8898 25.2032C26.8298 25.2032 26.7698 25.2032 26.7098 25.2032C22.5298 25.2032 18.3598 25.2032 14.1798 25.2032C14.1198 25.2032 14.0598 25.2032 13.8898 25.1932H13.8798Z" fill="#ADADAD"/>
</svg>
