<svg width="41" height="41" viewBox="0 0 41 41" fill="none" xmlns="http://www.w3.org/2000/svg">
<rect x="0.09021" y="0.507202" width="39.9338" height="39.9338" rx="12" fill="white"/>
<path d="M17.6372 17.7382L23.4772 16.3382V11.6682C23.4772 10.0682 21.9772 8.8782 20.4172 9.2582L12.3672 11.1882C11.2472 11.4582 10.4672 12.4582 10.4672 13.5982V21.4982C10.4672 23.0982 11.9672 24.2882 13.5272 23.9082L15.7372 23.3782V20.1382C15.7372 18.9882 16.5272 17.9882 17.6372 17.7282V17.7382Z" fill="#136BFB"/>
<path d="M26.5971 15.8082L24.3871 16.3382L18.5471 17.7382C17.4271 18.0082 16.6471 19.0082 16.6471 20.1482V28.0482C16.6471 29.6482 18.1471 30.8382 19.7071 30.4582L27.7471 28.5282C28.8671 28.2582 29.6471 27.2582 29.6471 26.1182V18.2182C29.6471 16.6182 28.1471 15.4282 26.5871 15.8082H26.5971Z" fill="#136BFB"/>
</svg>
