<svg width="41" height="41" viewBox="0 0 41 41" fill="none" xmlns="http://www.w3.org/2000/svg">
<rect x="0.845703" y="0.507202" width="39.9338" height="39.9338" rx="12" fill="white"/>
<path d="M17.6225 21.3942C17.7425 20.9442 17.4025 20.4942 16.9325 20.4942C15.7325 20.4942 14.4225 20.4942 13.2925 20.4942C12.9125 20.4942 12.5525 20.4642 12.3425 20.0842C12.1225 19.6742 12.2125 19.2742 12.4525 18.9242C12.5825 18.7342 12.7625 18.5642 12.9425 18.4342C16.9125 15.5942 20.8825 12.7542 24.8525 9.9242C25.0425 9.7942 25.2625 9.6842 25.4825 9.6342C26.0225 9.5142 26.4925 9.8842 26.4825 10.4442C26.4725 11.4642 24.7625 17.1642 24.0625 19.4842C23.9125 19.9742 24.2825 20.4742 24.7925 20.4742C25.8625 20.4742 27.5025 20.4942 28.4025 20.4942C29.2225 20.4942 29.6325 21.1042 29.2825 21.8542C29.1625 22.1042 28.9625 22.3542 28.7325 22.5142C24.7525 25.3742 20.7625 28.2342 16.7625 31.0742C16.5125 31.2542 16.1325 31.3542 15.8325 31.3342C15.2825 31.2942 15.0225 30.7842 15.1925 30.1742C15.6225 28.6042 16.0625 27.0442 16.5025 25.4842C16.7725 24.5242 17.0525 23.5742 17.3025 22.6142C17.3425 22.4842 17.4925 21.9142 17.6225 21.4042V21.3942Z" fill="#136BFB"/>
</svg>
