<svg width="41" height="41" viewBox="0 0 41 41" fill="none" xmlns="http://www.w3.org/2000/svg">
<rect x="0.105225" y="0.507202" width="39.9338" height="39.9338" rx="12" fill="white"/>
<path d="M27.4121 21.6641C28.6921 21.3841 30.0321 21.2141 31.3721 21.1641C31.5721 21.1641 31.7421 20.9841 31.7421 20.7841C31.7421 20.5841 31.5821 20.4141 31.3721 20.4041C30.0221 20.3541 28.6921 20.1841 27.4121 19.9041C27.2021 19.8541 26.9921 19.8141 26.7821 19.7541C24.0321 19.0741 22.3421 17.6941 21.4521 15.4041C20.6221 13.2541 20.5021 10.8641 20.4521 8.40412C20.4521 8.19412 20.2821 8.03412 20.0721 8.03412C19.8621 8.03412 19.6921 8.20412 19.6921 8.40412C19.6421 10.8741 19.5221 13.2641 18.6921 15.4041C17.8021 17.6941 16.1121 19.0741 13.3621 19.7541C13.1521 19.8041 12.9421 19.8541 12.7321 19.9041C11.4521 20.1841 10.1121 20.3541 8.7721 20.4041C8.5721 20.4041 8.4021 20.5841 8.4021 20.7841C8.4021 20.9841 8.5621 21.1541 8.7721 21.1641C10.1221 21.2141 11.4521 21.3841 12.7321 21.6641C12.9421 21.7141 13.1521 21.7541 13.3621 21.8141C16.1121 22.4941 17.8021 23.8741 18.6921 26.1641C19.5221 28.3141 19.6421 30.7041 19.6921 33.1641C19.6921 33.3741 19.8621 33.5341 20.0721 33.5341C20.2821 33.5341 20.4521 33.3641 20.4521 33.1641C20.5021 30.6941 20.6221 28.3041 21.4521 26.1641C22.3421 23.8741 24.0321 22.4941 26.7821 21.8141C26.9921 21.7641 27.2021 21.7141 27.4121 21.6641Z" fill="#136BFB"/>
</svg>
