<svg width="41" height="41" viewBox="0 0 41 41" fill="none" xmlns="http://www.w3.org/2000/svg">
<rect x="0.877075" y="0.507202" width="39.9338" height="39.9338" rx="12" fill="white"/>
<path d="M23.8087 18.8041C24.8487 18.5741 25.9387 18.4441 27.0287 18.3941C27.1987 18.3941 27.3287 18.2541 27.3287 18.0841C27.3287 17.9141 27.1987 17.7841 27.0287 17.7741C25.9287 17.7341 24.8487 17.5941 23.7987 17.3641C23.6287 17.3241 23.4587 17.2841 23.2787 17.2441C21.0487 16.6941 19.6687 15.5741 18.9487 13.7141C18.2687 11.9741 18.1787 10.0241 18.1287 8.02412C18.1287 7.85412 17.9887 7.72412 17.8187 7.72412C17.6487 7.72412 17.5087 7.85412 17.5087 8.02412C17.4687 10.0341 17.3687 11.9741 16.6887 13.7141C15.9687 15.5741 14.5887 16.6941 12.3587 17.2441C12.1887 17.2841 12.0187 17.3241 11.8387 17.3641C10.7987 17.5941 9.70873 17.7241 8.61873 17.7741C8.44873 17.7741 8.31873 17.9141 8.31873 18.0841C8.31873 18.2541 8.44873 18.3841 8.61873 18.3941C9.71873 18.4341 10.7987 18.5741 11.8387 18.8041C12.0087 18.8441 12.1787 18.8841 12.3587 18.9241C14.5887 19.4741 15.9687 20.5941 16.6887 22.4541C17.3687 24.1941 17.4587 26.1441 17.5087 28.1441C17.5087 28.3141 17.6487 28.4441 17.8187 28.4441C17.9887 28.4441 18.1287 28.3141 18.1287 28.1441C18.1687 26.1341 18.2687 24.1941 18.9487 22.4541C19.6687 20.5941 21.0487 19.4741 23.2787 18.9241C23.4487 18.8841 23.6187 18.8441 23.7987 18.8041H23.8087Z" fill="#136BFB"/>
<path d="M34.2788 26.6641C33.6488 26.6441 33.0188 26.5641 32.4187 26.4341C32.3187 26.4141 32.2188 26.3941 32.1188 26.3641C30.8588 26.0541 30.0788 25.4241 29.6788 24.3741C29.2888 23.3741 29.2388 22.2441 29.2088 21.0841C29.2088 20.9141 29.0687 20.7841 28.8987 20.7841C28.7287 20.7841 28.5887 20.9141 28.5887 21.0841C28.5587 22.2441 28.5088 23.3741 28.1188 24.3741C27.7088 25.4241 26.9388 26.0541 25.6788 26.3641C25.5788 26.3841 25.4788 26.4141 25.3788 26.4341C24.7788 26.5641 24.1488 26.6441 23.5188 26.6641C23.3488 26.6641 23.2188 26.8041 23.2188 26.9741C23.2188 27.1441 23.3488 27.2741 23.5188 27.2841C24.1488 27.3141 24.7788 27.3841 25.3788 27.5241C25.4788 27.5441 25.5788 27.5641 25.6788 27.5941C26.9388 27.9041 27.7188 28.5341 28.1188 29.5841C28.5088 30.5841 28.5587 31.7141 28.5887 32.8741C28.5887 33.0441 28.7287 33.1741 28.8987 33.1741C29.0687 33.1741 29.2088 33.0441 29.2088 32.8741C29.2388 31.7141 29.2888 30.5941 29.6788 29.5841C30.0887 28.5341 30.8588 27.9041 32.1188 27.5941C32.2188 27.5741 32.3187 27.5441 32.4187 27.5241C33.0188 27.3941 33.6488 27.3141 34.2788 27.2841C34.4488 27.2841 34.5787 27.1441 34.5787 26.9741C34.5787 26.8041 34.4488 26.6741 34.2788 26.6641Z" fill="#136BFB"/>
</svg>
