<svg width="40" height="41" viewBox="0 0 40 41" fill="none" xmlns="http://www.w3.org/2000/svg">
<rect y="0.70752" width="39.9338" height="39.9338" rx="12" fill="#F7F7F7"/>
<path d="M18.387 22.3545V23.0945H21.257V24.0045H18.387V25.3645H16.687V24.0045H15.377V23.0945H16.687V16.2245H20.447C22.847 16.2245 24.327 17.2645 24.327 19.2945C24.327 21.3245 22.847 22.3545 20.447 22.3545H18.387ZM20.437 17.6645H18.387V20.9845H20.437C21.837 20.9845 22.617 20.3745 22.617 19.3145C22.617 18.2545 21.837 17.6645 20.437 17.6645Z" fill="#0F0F0F"/>
<path d="M19.967 31.4744C25.9317 31.4744 30.767 26.6391 30.767 20.6745C30.767 14.7098 25.9317 9.87445 19.967 9.87445C14.0023 9.87445 9.16699 14.7098 9.16699 20.6745C9.16699 26.6391 14.0023 31.4744 19.967 31.4744Z" stroke="#0F0F0F" stroke-width="1.08" stroke-miterlimit="10"/>
</svg>
