<svg width="33" height="33" viewBox="0 0 33 33" fill="none" xmlns="http://www.w3.org/2000/svg">
<rect width="33" height="33" rx="10" fill="#F7F7F7"/>
<path d="M24.2101 13.9244C24.6201 13.9244 24.9901 13.9244 25.3601 13.9244C26.3001 13.9444 26.8601 14.6544 26.6001 15.5444C25.8601 18.1144 25.1101 20.6744 24.3601 23.2344C24.1201 24.0644 23.4601 24.5544 22.5901 24.5544C18.0001 24.5544 13.4201 24.5544 8.83011 24.5544C7.75011 24.5544 7.00011 23.7744 7.00011 22.7044C7.00011 18.6944 7.00011 14.6844 7.00011 10.6844C6.99011 9.70444 7.68011 9.01444 8.66011 9.00444C10.2001 8.99444 11.7301 9.00444 13.2701 9.00444C13.9401 9.00444 14.4801 9.27444 14.9001 9.79444C15.1101 10.0544 15.3301 10.3044 15.5301 10.5744C15.7801 10.9244 16.0901 11.0544 16.5101 11.0544C18.4301 11.0444 20.3501 11.0544 22.2701 11.0544C23.5701 11.0544 24.2001 11.6844 24.2001 12.9844C24.2001 13.2744 24.2001 13.5744 24.2001 13.9344L24.2101 13.9244ZM10.4101 23.7444C10.4801 23.7444 10.5601 23.7644 10.6301 23.7644C14.5901 23.7644 18.5501 23.7644 22.5001 23.7644C23.1101 23.7644 23.4201 23.5044 23.6001 22.8944C24.3201 20.4444 25.0301 17.9844 25.7501 15.5344C25.9301 14.9044 25.8001 14.7444 25.1501 14.7444C23.0501 14.7444 20.9501 14.7444 18.8501 14.7444C17.2101 14.7444 15.5701 14.7444 13.9301 14.7444C13.3101 14.7444 12.9801 14.9744 12.8101 15.5344C12.0101 18.2644 11.2101 20.9944 10.4001 23.7444H10.4101ZM23.3801 13.9244C23.3801 13.5344 23.3801 13.2044 23.3801 12.8744C23.3801 12.1544 23.1001 11.8744 22.3801 11.8744C20.7301 11.8744 19.0801 11.8744 17.4301 11.8744C15.4901 11.8744 15.5601 11.9444 14.3701 10.4244C14.0301 9.99444 13.6201 9.80444 13.0801 9.81444C11.7001 9.82444 10.3101 9.81444 8.93011 9.81444C8.08011 9.81444 7.83011 10.0644 7.83011 10.9044C7.83011 14.7644 7.83011 18.6344 7.83011 22.4944C7.83011 22.6144 7.83011 22.7244 7.83011 22.8444C7.87011 23.2644 8.14011 23.5944 8.54011 23.7044C9.13011 23.8744 9.62011 23.5544 9.82011 22.8644C10.5401 20.4044 11.2601 17.9344 11.9801 15.4744C12.3101 14.3544 12.8801 13.9244 14.0401 13.9244C16.9801 13.9244 19.9301 13.9244 22.8701 13.9244C23.0201 13.9244 23.1701 13.9244 23.3801 13.9244Z" fill="#0F0F0F"/>
</svg>
