<svg width="33" height="33" viewBox="0 0 33 33" fill="none" xmlns="http://www.w3.org/2000/svg">
<rect width="33" height="33" rx="10" fill="#F7F7F7"/>
<mask id="mask0_5203_2" style="mask-type:luminance" maskUnits="userSpaceOnUse" x="8" y="9" width="17" height="16">
<path d="M16.5 24.74C20.7305 24.74 24.16 21.3105 24.16 17.08C24.16 12.8495 20.7305 9.41998 16.5 9.41998C12.2695 9.41998 8.84003 12.8495 8.84003 17.08C8.84003 21.3105 12.2695 24.74 16.5 24.74Z" fill="white"/>
</mask>
<g mask="url(#mask0_5203_2)">
<path d="M16.61 18.56C19.21 18.61 21.34 20.58 21.65 23.1H22.49C22.27 20.69 20.63 18.64 18.33 17.9C19.87 16.89 20.31 14.83 19.3 13.28C18.29 11.74 16.23 11.3 14.68 12.31C13.14 13.32 12.7 15.38 13.71 16.93C13.96 17.32 14.29 17.65 14.68 17.9C12.37 18.64 10.73 20.69 10.52 23.1H11.36C11.68 20.49 13.93 18.5 16.61 18.56ZM14 15.12C14 13.73 15.12 12.61 16.51 12.61C17.9 12.61 19.02 13.73 19.02 15.12C19.02 16.51 17.9 17.63 16.51 17.63C15.13 17.63 14 16.51 14 15.12Z" fill="#0F0F0F"/>
</g>
<path d="M16.5 24.74C20.7305 24.74 24.16 21.3105 24.16 17.08C24.16 12.8495 20.7305 9.41998 16.5 9.41998C12.2695 9.41998 8.84003 12.8495 8.84003 17.08C8.84003 21.3105 12.2695 24.74 16.5 24.74Z" stroke="#0F0F0F" stroke-width="0.85" stroke-miterlimit="10"/>
</svg>
