<svg width="33" height="33" viewBox="0 0 33 33" fill="none" xmlns="http://www.w3.org/2000/svg">
<rect width="33" height="33" rx="10" fill="#F7F7F7"/>
<path d="M25.3 15.16C23.94 14.89 22.92 13.7 22.92 12.27C22.92 11.77 23.05 11.3 23.27 10.89C23.37 10.71 23.37 10.48 23.23 10.32C22.9 9.93 22.55 9.56 22.16 9.23C22 9.1 21.78 9.09 21.6 9.18C20.49 9.74 19.11 9.56 18.18 8.63C17.74 8.19 17.47 7.65 17.37 7.09C16.98 7.04 16.58 7 16.18 7C15.83 7 15.49 7.02 15.15 7.06C14.87 8.4 13.68 9.41 12.26 9.41C11.77 9.41 11.31 9.29 10.9 9.08C10.72 8.98 10.5 8.99 10.34 9.12C9.94 9.45 9.57 9.81 9.23 10.2C9.1 10.35 9.09 10.57 9.18 10.75C9.73 11.85 9.54 13.23 8.62 14.15C8.19 14.58 7.65 14.85 7.09 14.96C7.04 15.36 7 15.77 7 16.18C7 16.52 7.02 16.85 7.06 17.18C8.4 17.46 9.4 18.65 9.4 20.07C9.4 20.57 9.28 21.03 9.06 21.44C8.96 21.62 8.96 21.84 9.1 22C9.42 22.39 9.78 22.76 10.16 23.1C10.32 23.24 10.54 23.24 10.72 23.15C11.83 22.59 13.21 22.78 14.13 23.7C14.57 24.14 14.84 24.69 14.94 25.26C15.34 25.31 15.75 25.35 16.17 25.35C16.5 25.35 16.83 25.33 17.15 25.3C17.42 23.94 18.61 22.92 20.04 22.92C20.55 22.92 21.02 23.05 21.43 23.27C21.61 23.37 21.84 23.37 22 23.24C22.39 22.92 22.76 22.56 23.09 22.18C23.23 22.02 23.23 21.8 23.14 21.61C22.57 20.5 22.75 19.11 23.68 18.18C24.13 17.73 24.68 17.47 25.26 17.36C25.31 16.97 25.35 16.57 25.35 16.17C25.35 15.83 25.33 15.49 25.29 15.16H25.3ZM16.18 20.67C13.69 20.67 11.68 18.65 11.68 16.17C11.68 13.69 13.7 11.67 16.18 11.67C18.66 11.67 20.68 13.69 20.68 16.17C20.68 18.65 18.66 20.67 16.18 20.67Z" stroke="#0F0F0F" stroke-width="0.85" stroke-miterlimit="10"/>
</svg>
