<svg width="33" height="34" viewBox="0 0 33 34" fill="none" xmlns="http://www.w3.org/2000/svg">
<rect y="0.35025" width="33" height="33" rx="10" fill="#F7F7F7"/>
<path d="M23.79 9.35025H9.95C8.87304 9.35025 8 10.2233 8 11.3003V14.7303C8 15.8072 8.87304 16.6803 9.95 16.6803H23.79C24.867 16.6803 25.74 15.8072 25.74 14.7303V11.3003C25.74 10.2233 24.867 9.35025 23.79 9.35025Z" stroke="#0F0F0F" stroke-width="0.85" stroke-miterlimit="10"/>
<path d="M23.79 16.6703H9.95C8.87304 16.6703 8 17.5433 8 18.6203V22.0503C8 23.1272 8.87304 24.0003 9.95 24.0003H23.79C24.867 24.0003 25.74 23.1272 25.74 22.0503V18.6203C25.74 17.5433 24.867 16.6703 23.79 16.6703Z" stroke="#0F0F0F" stroke-width="0.85" stroke-miterlimit="10"/>
<path d="M11.59 13.9503C12.1092 13.9503 12.53 13.5294 12.53 13.0103C12.53 12.4911 12.1092 12.0703 11.59 12.0703C11.0709 12.0703 10.65 12.4911 10.65 13.0103C10.65 13.5294 11.0709 13.9503 11.59 13.9503Z" fill="#0F0F0F"/>
<path d="M14.89 13.9503C15.4091 13.9503 15.83 13.5294 15.83 13.0103C15.83 12.4911 15.4091 12.0703 14.89 12.0703C14.3708 12.0703 13.95 12.4911 13.95 13.0103C13.95 13.5294 14.3708 13.9503 14.89 13.9503Z" fill="#0F0F0F"/>
<path d="M11.59 21.0803C12.1092 21.0803 12.53 20.6594 12.53 20.1403C12.53 19.6211 12.1092 19.2003 11.59 19.2003C11.0709 19.2003 10.65 19.6211 10.65 20.1403C10.65 20.6594 11.0709 21.0803 11.59 21.0803Z" fill="#0F0F0F"/>
<path d="M14.89 21.0803C15.4091 21.0803 15.83 20.6594 15.83 20.1403C15.83 19.6211 15.4091 19.2003 14.89 19.2003C14.3708 19.2003 13.95 19.6211 13.95 20.1403C13.95 20.6594 14.3708 21.0803 14.89 21.0803Z" fill="#0F0F0F"/>
</svg>
